<?xml version="1.0" encoding="UTF-8"?>
<svg id="Warstwa_2" data-name="Warstwa 2" xmlns="http://www.w3.org/2000/svg" viewBox="0 0 131.56 29.54">
  <defs>
    <style>
      .cls-1 {
        fill: #1d1d1b;
      }
    </style>
  </defs>
  <g id="Tryb_izolacji" data-name="Tryb izolacji">
    <path class="cls-1" d="m53.44,12.72h0c-6.08-1.28-7.15-2.6-7.15-4.89s2.22-3.89,5.39-3.89c2.83,0,5.29.91,7.73,2.87l.47.37,2.54-3.32-.44-.34c-3.12-2.47-6.17-3.52-10.22-3.52-5.67,0-9.79,3.44-9.79,8.18,0,5.32,3.95,7.26,9.87,8.53,5.81,1.21,6.83,2.5,6.83,4.77,0,2.43-2.33,4.13-5.67,4.13-3.56,0-6.23-1.09-9.23-3.76l-.44-.39-2.71,3.16.42.37c3.54,3.11,7.3,4.56,11.84,4.56,5.98,0,10.15-3.48,10.15-8.46,0-4.42-2.87-6.92-9.59-8.37Z"/>
    <path class="cls-1" d="m112.96.39h-4.79l-9.59,22.87L89.13.71l-.2-.32h-4.72l11.9,27.44c.08.18.19.35.34.55.48.61,1.2.96,1.98.96h.32c.77,0,1.49-.35,1.98-.96.15-.2.26-.37.34-.55L112.82.72l.14-.32Z"/>
    <path class="cls-1" d="m4.32,24.12v-7.5h12.77v-3.98H4.32v-7.27c0-.56.46-1.02,1.03-1.02h13.54V.38H5.04C2.26.38,0,2.6,0,5.34v18.84c0,2.73,2.25,4.95,5.02,4.95h14.07v-3.98H5.37c-.58,0-1.05-.46-1.05-1.03Z"/>
    <path class="cls-1" d="m69.1,24.12v-7.5h12.77v-3.98h-12.77v-7.27c0-.56.46-1.02,1.03-1.02h13.54V.38h-13.85c-2.78,0-5.04,2.23-5.04,4.97v18.84c0,2.73,2.25,4.95,5.02,4.95h14.07v-3.98h-13.72c-.58,0-1.05-.46-1.05-1.03Z"/>
    <path class="cls-1" d="m117.84,25.15c-.58,0-1.05-.46-1.05-1.03v-7.5h12.77v-3.98h-12.77v-7.27c0-.56.46-1.02,1.03-1.02h13.54V.38h-13.85c-2.78,0-5.04,2.23-5.04,4.97v18.84c0,2.73,2.25,4.95,5.02,4.95h14.07v-3.98h-13.72Z"/>
    <path class="cls-1" d="m25.96,24.12V.38h-4.32v23.8c0,2.73,2.25,4.95,5.02,4.95h14.07v-3.98h-13.72c-.58,0-1.05-.46-1.05-1.03Z"/>
  </g>
</svg>